<?xml version="1.0" encoding="utf-8"?>
<!-- Generator: Adobe Illustrator 14.0.0, SVG Export Plug-In . SVG Version: 6.00 Build 43363)  -->
<!DOCTYPE svg PUBLIC "-//W3C//DTD SVG 1.1//EN" "http://www.w3.org/Graphics/SVG/1.1/DTD/svg11.dtd">
<svg version="1.1" id="Layer_1" xmlns="http://www.w3.org/2000/svg" xmlns:xlink="http://www.w3.org/1999/xlink" x="0px" y="0px" width="165.265px" height="97.57px" viewBox="0 0 165.265 97.57" enable-background="new 0 0 165.265 97.57" xml:space="preserve">
  <path fill="rgba(255, 255, 255, 0.6)" d="M146.699,60.953c-1.384,0-2.726,0.17-4.021,0.465c1.104-2.842,1.716-5.929,1.716-9.16c0-13.983-11.336-25.32-25.32-25.32c-2.101,0-4.14,0.261-6.091,0.743C107.029,11.807,91.721,0.507,73.769,0.507c-23.127,0-41.875,18.748-41.875,41.875c0,1.444,0.073,2.872,0.216,4.278c-1.936-0.469-3.956-0.724-6.036-0.724c-14.118,0-25.563,11.445-25.563,25.563c0,13.637,10.68,24.778,24.132,25.521v0.042h122.055c9.972,0,18.055-8.084,18.055-18.055S156.67,60.953,146.699,60.953z"/>
</svg>
