<?xml version="1.0" encoding="utf-8"?>
<!-- Generator: Adobe Illustrator 19.1.0, SVG Export Plug-In . SVG Version: 6.00 Build 0)  -->
<svg version="1.1" id="Layer_1" xmlns="http://www.w3.org/2000/svg" xmlns:xlink="http://www.w3.org/1999/xlink" x="0px" y="0px"
	 viewBox="0 0 809.8 526.4" style="enable-background:new 0 0 809.8 526.4;" xml:space="preserve">
<style type="text/css">
	.st0{fill:#333C43;}
	.st1{fill:#FFFFFF;}
	.st2{fill:#94C93D;}
	.st3{fill:#994822;}
	.st4{fill:#A85525;}
	.st5{fill:#C56728;}
	.st6{fill:#994B23;}
	.st7{fill:#E6ECA4;}
	.st8{fill:#D6E37E;}
	.st9{fill:#B9CF74;}
	.st10{fill:#C4D676;}
	.st11{fill:#96B861;}
</style>
<g>
	<path class="st0" d="M399,284.4c-2.3,0.8-4.4,1.3-6.3,1.5l-3.1-8.5c1.9-0.2,3.6-0.6,5.1-1.1c2.2-0.8,3.6-2.1,4.1-3.9
		c0.5-1.8,0.1-4.1-1-7.1l-16.6-45.2l10.2-3.8l16.6,45.2c2.1,5.6,2.4,10.4,0.9,14.3C407.4,279.6,404.1,282.5,399,284.4z"/>
	<path class="st0" d="M446.6,250.8l-3.1-4.2l-0.5,0.2c-0.4,2.1-1.5,4-3.1,5.7c-1.6,1.7-3.7,3-6.3,3.9c-4.3,1.6-8,1.6-11.1,0.1
		c-3.1-1.5-5.4-4.5-7-8.8l-8.8-24.1l10.1-3.7l7.9,21.6c1,2.7,2.2,4.5,3.6,5.5s3.2,1.1,5.3,0.3c2.8-1,4.5-2.7,5.1-5.1s0-5.7-1.6-10
		l-6.4-17.4l10.1-3.7l13.5,36.9L446.6,250.8z"/>
	<path class="st0" d="M475,240.4l-10.1,3.7l-18.8-51.4l10.1-3.7L475,240.4z"/>
	<path class="st0" d="M466.7,201.6l11-4l14.6,18.2c1.3,1.6,2.4,3.6,3.6,6l0.2-0.1c-0.6-2.4-0.9-4.7-0.9-6.9l-0.8-23.3l10.8-4
		l-0.3,47.3c0,4.4-1,8-3,10.9c-2,2.9-4.7,5-8.2,6.3c-1.7,0.6-3.5,1.1-5.3,1.3l-2.9-8c1.3-0.2,2.7-0.5,4.1-1c1.8-0.7,3.1-1.8,4.1-3.3
		c0.9-1.6,1.4-3.6,1.3-6.1l-0.1-2L466.7,201.6z"/>
</g>
<g>
	<g>
		<path class="st0" d="M75.3,128.3c-1.1,0-2-0.9-2-2V73.2h-46v53.2c0,1.1-0.9,2-2,2H4c-1.1,0-2-0.9-2-2V5.1c0-1.1,0.9-2,2-2h21.3
			c1.1,0,2,0.9,2,2v48.5h46V5.1c0-1.1,0.9-2,2-2h21.3c1.1,0,2,0.9,2,2v121.2c0,1.1-0.9,2-2,2H75.3z"/>
		<path class="st1" d="M96.6,5.1v121.2H75.3V71.2h-50v55.2H4V5.1h21.3v50.5h50V5.1H96.6 M96.6,1.1H75.3c-2.2,0-4,1.8-4,4v46.5h-42
			V5.1c0-2.2-1.8-4-4-4H4c-2.2,0-4,1.8-4,4v121.2c0,2.2,1.8,4,4,4h21.3c2.2,0,4-1.8,4-4V75.2h42v51.2c0,2.2,1.8,4,4,4h21.3
			c2.2,0,4-1.8,4-4V5.1C100.6,2.9,98.8,1.1,96.6,1.1L96.6,1.1z"/>
	</g>
	<g>
		<path class="st0" d="M184.1,130.1c-0.5,0-1-0.2-1.4-0.5c-0.3-0.3-6-5.6-8.6-15.6c-5.1,10.6-14.1,15.8-27.2,15.8
			c-22.2,0-34.9-16.9-34.9-46.4c0-13.8,4.4-26.2,12.4-35.2c8.1-9.1,19.6-14.1,32.4-14.1c6.1,0,17,0.9,34.2,5.1
			c0.4,0.1,0.6,0.1,0.7,0.2c0.9,0.2,1.6,1,1.6,2v42.3c0,27,8,36.7,8.1,36.8c0.4,0.5,0.6,1.2,0.4,1.8c-0.2,0.6-0.6,1.1-1.2,1.4
			l-15.9,6.5C184.6,130.1,184.4,130.1,184.1,130.1z M159.3,52.4c-14.6,0-21.1,9-21.1,29.1c0,18.9,2,29.9,12.3,29.9
			c9.9,0,18.6-15.5,18.6-33.3V53.9C166.5,53.2,162.2,52.4,159.3,52.4z"/>
		<path class="st1" d="M156.9,36.1c14.3,0,33,4.8,34.6,5.2v42.3c0,28.3,8.6,38.1,8.6,38.1l-15.9,6.5c0,0-8.2-7.5-9.1-22
			c-3.9,14.3-12.7,21.7-27.9,21.7c-22.4,0-32.9-17.5-32.9-44.4C114.1,56.1,131.5,36.1,156.9,36.1 M150.5,113.4
			c11.8,0,20.6-17.7,20.6-35.3V52.4c-2.3-0.7-8.1-2-11.8-2c-17.9,0-23.1,13.1-23.1,31.1C136.1,98.2,137.4,113.4,150.5,113.4
			 M156.9,32.1c-13.4,0-25.4,5.2-33.9,14.8c-8.3,9.3-12.9,22.3-12.9,36.5c0,30.8,13.5,48.4,36.9,48.4c12,0,20.9-4.3,26.6-12.9
			c3,7.8,7.5,12,7.7,12.2c0.8,0.7,1.7,1,2.7,1c0.5,0,1-0.1,1.5-0.3l15.9-6.5c1.2-0.5,2.1-1.5,2.4-2.8c0.3-1.3,0-2.6-0.9-3.5
			c-0.2-0.2-2-2.6-3.8-7.8c-1.8-5.1-3.8-14.1-3.8-27.7V41.3c0-1.9-1.3-3.5-3.1-3.9c-0.1,0-0.4-0.1-0.7-0.2
			C174.2,33,163.1,32.1,156.9,32.1L156.9,32.1z M150.5,109.4c-7.6,0-10.3-7.3-10.3-27.9c0-19,5.7-27.1,19.1-27.1
			c2.2,0,5.4,0.5,7.8,1.1v22.7C167.1,94.5,159.2,109.4,150.5,109.4L150.5,109.4z"/>
	</g>
	<g>
		<path class="st0" d="M266.5,128.3c-0.7,0-1.4-0.4-1.7-1l-13.3-23.1l-5.2-9.8l-5.2,9.9l-13.5,23c-0.4,0.6-1,1-1.7,1h-22.9
			c-0.7,0-1.4-0.4-1.8-1s-0.3-1.4,0.1-2L230.5,79L205,38.2c-0.4-0.6-0.4-1.4-0.1-2s1-1,1.7-1h23.6c0.7,0,1.3,0.4,1.7,1l11.3,18.5
			c1.2,1.9,3.1,5.9,5,10c1.9-3,4.1-6.5,5.8-9.6c2.2-4.1,5.4-10.6,7.8-18.1c0.2-0.5,0.6-1.8,2-1.8c0,0,21.1,0,21.1,0c1.1,0,2,0.9,2,2
			c0,0.3-0.1,0.5-0.2,0.8l-0.1,0.2c-2.2,6.6-5.6,14.4-9.7,22c-4.3,7.9-10.3,15.1-14,19.3l28.2,45.8c0.4,0.6,0.4,1.4,0,2s-1,1-1.7,1
			H266.5z"/>
		<path class="st1" d="M264,37.2C264,37.2,264,37.2,264,37.2l21.1,0c-0.1,0.2-2.6,9-9.7,22c-3.9,7.2-9.7,14.5-14.7,20.1l29,47.1
			h-23.3l-13.3-23.1l-7-13.1l-7,13.2l-13.4,22.9h-22.9l29.9-47.3l-26.2-41.9h23.6l11.3,18.5c1.4,2.3,4.1,8.1,6.4,13.1
			c2.9-4.3,5.7-8.8,7.9-12.7C261.6,45.5,263.9,37.2,264,37.2 M285.1,37.2C285.1,37.2,285.1,37.2,285.1,37.2L285.1,37.2
			C285.1,37.2,285.1,37.2,285.1,37.2 M264,33.2c-1.1,0-3.1,0.4-3.9,3.2c-2.4,7.4-5.5,13.7-7.6,17.7c-1.1,2.1-2.5,4.3-3.8,6.4
			c-1.4-3-2.7-5.5-3.6-7l-11.3-18.4c-0.7-1.2-2-1.9-3.4-1.9h-23.6c-1.5,0-2.8,0.8-3.5,2.1c-0.7,1.3-0.7,2.8,0.1,4.1L228.1,79
			l-28.6,45.2c-0.8,1.2-0.8,2.8-0.1,4.1c0.7,1.3,2,2.1,3.5,2.1h22.9c1.4,0,2.7-0.8,3.5-2l13.4-22.9c0-0.1,0.1-0.1,0.1-0.2l3.5-6.6
			l3.4,6.4c0,0,0,0.1,0.1,0.1l13.3,23.1c0.7,1.2,2,2,3.5,2h23.3c1.4,0,2.8-0.8,3.5-2c0.7-1.3,0.7-2.8-0.1-4l-27.5-44.6
			c3.8-4.4,9.2-11.2,13.2-18.6c4.2-7.7,7.7-15.6,9.8-22.4l0-0.1c0.2-0.5,0.3-0.9,0.3-1.5c0-2.2-1.8-4-4-4c0,0-0.1,0-0.1,0h-20.8
			C264.1,33.2,264,33.2,264,33.2L264,33.2z"/>
	</g>
	<g>
		<path class="st0" d="M330.8,130.1c-27,0-41.2-16.4-41.2-47.5C289.6,52,306,33,332.4,33c27,0,41.2,16.5,41.2,47.7
			C373.6,111.2,357.2,130.1,330.8,130.1z M330.6,52c-10.5,0-15,8.6-15,28.8c0,20.9,5.2,30.2,17,30.2c10.5,0,15-8.6,15-28.6
			C347.6,61.4,342.4,52,330.6,52z"/>
		<path class="st1" d="M332.4,35c27.4,0,39.2,17.2,39.2,45.7c0,26.8-13.4,47.5-40.8,47.5c-27.4,0-39.2-17.2-39.2-45.5
			C291.6,55.6,305,35,332.4,35 M332.6,113.1c13.8,0,17-13.4,17-30.6c0-17.9-3.6-32.4-19-32.4c-13.8,0-17,13.4-17,30.8
			C313.6,98.6,317.2,113.1,332.6,113.1 M332.4,31c-14.2,0-25.9,5.3-33.8,15.2c-7.2,9.1-11,21.7-11,36.4c0,15.5,3.4,27.5,10.2,35.9
			c7.4,9,18.5,13.6,33,13.6c14.2,0,25.9-5.2,33.8-15.2c7.2-9,11-21.6,11-36.3C375.6,39.6,352.1,31,332.4,31L332.4,31z M332.6,109.1
			c-13.2,0-15-14.3-15-28.2c0-23.6,6.6-26.8,13-26.8c7.4,0,15,3.4,15,28.4C345.6,105.9,339,109.1,332.6,109.1L332.6,109.1z"/>
	</g>
	<g>
		<path class="st2" d="M498.6,128.3c-1.1,0-2-0.9-2-2V81.2c0-27.1-8.2-36.7-8.3-36.8c-0.4-0.5-0.6-1.2-0.5-1.8s0.6-1.2,1.2-1.4
			l16.1-6.5c0.2-0.1,0.5-0.1,0.7-0.1c0.5,0,1,0.2,1.4,0.6c0.2,0.2,4.9,5,7.7,14c5.3-10,13.9-15.3,25.3-15.3c3,0,6,0.6,8,1
			c3.8,0.9,5,1.3,5,3c0,0.2,0,0.5-0.1,0.7l-5.6,19.6c0,0.2-0.1,0.3-0.2,0.5c-0.3,0.7-1,1.1-1.8,1.1c-0.5,0-0.9-0.2-1.3-0.5
			c-0.5-0.3-3-1.5-7.5-1.5c-7.5,0-15.9,8-15.9,19.5v49.1c0,1.1-0.9,2-2,2H498.6z"/>
		<path class="st1" d="M540.3,35.9c5.5,0,11.3,2,11.1,2l-5.7,19.9c-0.1-0.2-3.1-2-8.8-2c-8.6,0-17.9,8.8-17.9,21.5v49.1h-20.4V81.2
			c0-28.5-8.8-38.1-8.8-38.1l16.1-6.5c0,0,6.4,6.5,8.6,18.8C519.3,41.6,528.8,35.9,540.3,35.9 M545.7,57.7
			C545.7,57.7,545.7,57.8,545.7,57.7L545.7,57.7 M540.3,31.9c-7.9,0-17.9,2.4-24.8,12.6c-2.9-6.9-6.5-10.5-6.7-10.8
			c-0.8-0.8-1.8-1.2-2.8-1.2c-0.5,0-1,0.1-1.5,0.3l-16.1,6.5c-1.2,0.5-2.2,1.5-2.5,2.8c-0.3,1.3,0.1,2.6,1,3.6
			c0.4,0.5,7.8,9.9,7.8,35.5v45.1c0,2.2,1.8,4,4,4H519c2.2,0,4-1.8,4-4V77.3c0-10.3,7.3-17.5,13.9-17.5c3.7,0,5.8,0.9,6.4,1.2
			c0.7,0.5,1.5,0.8,2.4,0.8c1.5,0,2.9-0.8,3.6-2.2c0.2-0.3,0.3-0.6,0.3-0.9l5.6-19.5c0.1-0.4,0.2-0.8,0.2-1.3c0-3-2.7-3.8-3.8-4.2
			c-0.6-0.2-1.6-0.5-2.8-0.7C546.7,32.5,543.5,31.9,540.3,31.9L540.3,31.9z"/>
	</g>
	<g>
		<path class="st2" d="M591,130.1c-26.6,0-40.7-15.8-40.7-45.7c0-30.9,17.7-50.9,45.1-50.9c28.8,0,31.9,19.2,31.9,27.4
			c0,19-21.4,33.2-51.1,34.2c1.8,11.2,7.3,16.3,17.6,16.3c9.9,0,24.5-6.1,24.7-6.1c0.3-0.1,0.5-0.2,0.8-0.2c0.8,0,1.5,0.5,1.8,1.2
			l5.4,12.7c0.4,1,0,2.1-0.9,2.5C624.9,122,609.3,130.1,591,130.1z M593.8,51.5c-7.8,0-17.2,4.7-18.3,26.7
			c18.9-1.3,27.4-9.5,27.4-17.2C602.9,55.1,599.4,51.5,593.8,51.5z"/>
		<path class="st1" d="M595.4,35.5c21.3,0,29.9,11.1,29.9,25.4c0,17.2-19.9,31.9-51.4,32.2c1.3,11.1,5.7,20.2,19.9,20.2
			c10.4,0,25.4-6.3,25.4-6.3l5.4,12.7c0,0-15.6,8.2-33.7,8.2c-27.6,0-38.7-17.6-38.7-43.7C552.3,52.6,571.1,35.5,595.4,35.5
			 M573.4,80.3c22.7-0.9,31.5-10.9,31.5-19.3c0-7-4.5-11.5-11.1-11.5C578.1,49.5,573.8,65.6,573.4,80.3 M595.4,31.5
			c-13.5,0-25.2,4.8-33.6,13.8c-8.9,9.4-13.5,22.9-13.5,39.1c0,14.6,3.3,26.1,9.9,34.2c7.3,9,18.3,13.5,32.8,13.5
			c18.9,0,34.9-8.4,35.5-8.7c1.8-1,2.6-3.2,1.8-5.1l-5.4-12.7c-0.6-1.5-2.1-2.4-3.7-2.4c-0.5,0-1,0.1-1.5,0.3
			c-0.1,0.1-14.4,6-23.9,6c-8.7,0-13.3-3.7-15.2-12.4c13.9-0.8,25.9-4.3,35-10.3c10.1-6.7,15.7-15.8,15.7-25.8
			c0-8.6-2.8-15.9-8.2-21C615.2,34.4,606.6,31.5,595.4,31.5L595.4,31.5z M577.6,76c0.5-6,1.8-11,3.7-14.7c2.8-5.3,6.7-7.8,12.4-7.8
			c4.4,0,7.1,2.8,7.1,7.5c0,3.3-2,6.6-5.6,9.3C592.3,72.4,586.9,75.1,577.6,76L577.6,76z"/>
	</g>
	<g>
		<path class="st2" d="M675.7,130.1c-26.6,0-40.7-15.8-40.7-45.7c0-30.9,17.7-50.9,45.2-50.9c28.8,0,31.9,19.2,31.9,27.4
			c0,19-21.4,33.2-51.1,34.2c1.8,11.2,7.3,16.3,17.6,16.3c9.9,0,24.5-6.1,24.7-6.1c0.3-0.1,0.5-0.2,0.8-0.2c0.8,0,1.5,0.5,1.8,1.2
			l5.4,12.7c0.4,1,0,2.1-0.9,2.5C709.6,122,694,130.1,675.7,130.1z M678.5,51.5c-7.8,0-17.3,4.7-18.3,26.7
			c18.9-1.3,27.4-9.5,27.4-17.2C687.6,55.1,684.1,51.5,678.5,51.5z"/>
		<path class="st1" d="M680.1,35.5c21.3,0,29.9,11.1,29.9,25.4c0,17.2-19.9,31.9-51.4,32.2c1.3,11.1,5.7,20.2,19.9,20.2
			c10.4,0,25.4-6.3,25.4-6.3l5.4,12.7c0,0-15.6,8.2-33.7,8.2c-27.6,0-38.7-17.6-38.7-43.7C637,52.6,655.8,35.5,680.1,35.5
			 M658.1,80.3c22.7-0.9,31.5-10.9,31.5-19.3c0-7-4.5-11.5-11.1-11.5C662.8,49.5,658.5,65.6,658.1,80.3 M680.1,31.5
			c-13.5,0-25.2,4.8-33.6,13.8c-8.9,9.4-13.5,22.9-13.5,39.1c0,14.6,3.3,26.1,9.9,34.2c7.3,9,18.3,13.5,32.8,13.5
			c18.9,0,34.9-8.4,35.5-8.7c1.8-1,2.6-3.2,1.8-5.1l-5.4-12.7c-0.6-1.5-2.1-2.4-3.7-2.4c-0.5,0-1,0.1-1.5,0.3
			c-0.1,0.1-14.4,6-23.9,6c-8.7,0-13.3-3.7-15.2-12.4c13.9-0.8,25.9-4.3,35-10.3C708.5,80.1,714,70.9,714,61c0-8.6-2.8-15.9-8.2-21
			C699.9,34.4,691.3,31.5,680.1,31.5L680.1,31.5z M662.3,76c0.5-6,1.8-11,3.7-14.7c2.8-5.3,6.7-7.8,12.5-7.8c4.4,0,7.1,2.8,7.1,7.5
			c0,3.3-2,6.6-5.6,9.3C677,72.4,671.6,75.1,662.3,76L662.3,76z"/>
	</g>
	<g>
		<path class="st2" d="M782.6,128.3c-1.1,0-2-0.9-2-2V68.5c0-13.1-5.6-14.7-9.8-14.7c-9.7,0-19.7,10.6-19.7,28.3v44.2
			c0,1.1-0.9,2-2,2h-20.4c-1.1,0-2-0.9-2-2V81.2c0-27.1-8.2-36.7-8.3-36.8c-0.4-0.5-0.6-1.2-0.5-1.8s0.6-1.2,1.2-1.4l16.1-6.5
			c0.2-0.1,0.5-0.1,0.7-0.1c0.5,0,1,0.2,1.4,0.6c0.3,0.2,5.4,5.3,8.1,15c6.6-10.5,17.6-16.5,31.1-16.5c18.4,0,28.1,11.3,28.1,32.8
			v59.8c0,1.1-0.9,2-2,2H782.6z"/>
		<path class="st1" d="M776.6,35.7c18.4,0,26.1,12,26.1,30.8v59.8h-20.2V68.5c0-10-3.2-16.7-11.8-16.7c-10.7,0-21.7,11.5-21.7,30.3
			v44.2h-20.4V81.2c0-28.5-8.8-38.1-8.8-38.1l16.1-6.5c0,0,6.8,6.6,8.8,19.3C751,41.6,763.8,35.7,776.6,35.7 M776.6,31.7
			c-12.7,0-23.4,5-30.5,14.1c-3-7.7-7.1-11.8-7.4-12.1c-0.8-0.7-1.8-1.1-2.8-1.1c-0.5,0-1,0.1-1.5,0.3l-16.1,6.5
			c-1.2,0.5-2.2,1.5-2.5,2.8c-0.3,1.3,0.1,2.6,1,3.6c0.2,0.2,2,2.6,3.8,7.7c1.8,5.1,3.9,14,3.9,27.7v45.1c0,2.2,1.8,4,4,4h20.4
			c2.2,0,4-1.8,4-4V82.1c0-16.4,9-26.3,17.7-26.3c2.3,0,7.8,0,7.8,12.7v57.8c0,2.2,1.8,4,4,4h20.2c2.2,0,4-1.8,4-4V66.5
			C806.8,44.1,796.1,31.7,776.6,31.7L776.6,31.7z"/>
	</g>
	<g>
		<path class="st2" d="M436.5,130.1c-35,0-52.8-20.9-52.8-62.3C383.8,26,403.9,2,438.9,2c14.9,0,26.8,4.1,35.5,12.1
			c0.8,0.7,0.9,2,0.2,2.8l-14,16.2c-0.4,0.4-0.9,0.7-1.5,0.7c0,0-0.1,0-0.1,0c-0.6,0-1.2-0.4-1.5-0.9c-4.6-7-11.5-10.4-21-10.4
			c-13.9,0-22,9.4-24.6,28.7c0,0.4-0.1,0.8-0.2,1.3c-0.2,1.5-0.5,3.5-0.8,6c1.7-8.8,5.2-17.2,11.6-23.5c0.4-0.4,0.9-0.6,1.4-0.6
			c0.4,0,0.9,0.1,1.2,0.4c0.8,0.6,1,1.7,0.5,2.6c-0.1,0.1-3.3,6-5.6,15.3c3.6-7.4,9-13.7,16-18.7c0.4-0.3,0.7-0.5,0.9-0.6
			c0.4-0.3,0.8-0.4,1.2-0.4c0.6,0,1.1,0.2,1.5,0.7c0.7,0.8,0.6,2-0.1,2.8c0,0-3.8,3.7-7.6,10.7c-1.3,2.5-2.8,5.6-4.1,9.2
			c1.3-1.9,2.8-3.7,4.4-5.4c0.4-0.4,0.9-0.6,1.5-0.6c0.4,0,0.8,0.1,1.1,0.3c0.8,0.5,1.1,1.6,0.8,2.4c-0.2,0.4-15.3,37.6-6.3,51.5
			c2.1,3.2,5.3,4.9,9.9,5c0.3,0,0.6,0,0.8,0c11.9,0,18.1-7.3,21.1-25.2h-19c-1.1,0-2-0.9-2-2V66.8c0-1.1,0.9-2,2-2h41.2
			c0.5,0,1,0.2,1.4,0.6c0.4,0.4,0.6,0.9,0.6,1.4C484.9,99.7,478.7,130.1,436.5,130.1z"/>
		<path class="st1" d="M438.9,4c14.9,0,26.1,4.1,34.1,11.6l-14,16.2c-4.6-6.9-11.7-11.3-22.6-11.3c-16.5,0-24.1,12.4-26.5,30.4
			c-0.6,4.7-4.1,22.8,3.1,43c-2.5-16-3.9-42.9,10.9-57.4c0,0-11.5,20.4-7.5,46.8c-1.5-33.9,18.4-45.7,21.7-48.3
			c0,0-15.8,15-16.2,43.6c1-9.5,4.5-18.6,11.7-26.2c0,0-24.1,58.4,5.5,59.3c0.3,0,0.6,0,0.9,0c15.6,0,21-12.2,23.5-29.2h-21.3V66.8
			h41.2c-0.5,36.4-8.6,61.3-46.8,61.3c-35.9,0-50.8-22.3-50.8-60.3C385.8,30.4,402.5,4,438.9,4 M438.9,0c-18.8,0-33.4,6.5-43.4,19.4
			c-9,11.6-13.7,28.4-13.7,48.4c0,20.4,4.3,36.2,12.8,46.9c9.2,11.5,23.3,17.4,42,17.4c19.4,0,32.8-6.2,40.9-18.9
			c6.5-10.3,9.6-24.6,9.9-46.4c0-1.1-0.4-2.1-1.2-2.9c-0.8-0.8-1.8-1.2-2.8-1.2h-41.2c-2.2,0-4,1.8-4,4v15.6c0,2.2,1.8,4,4,4h16.6
			c-2.9,15.2-8.4,21.2-18.7,21.2c-0.3,0-0.5,0-0.8,0c-3.9-0.1-6.6-1.4-8.3-4.1c-3.3-5.1-3.3-15.5-0.1-29.2c2.6-11,6.5-20.4,6.5-20.5
			c0.7-1.8,0.1-3.8-1.5-4.9c-0.7-0.4-1.4-0.6-2.2-0.6c0,0-0.1,0-0.1,0c3.7-6.8,7.3-10.4,7.4-10.5c1.5-1.5,1.6-3.9,0.3-5.5
			c-0.8-0.9-1.9-1.4-3-1.4c-0.9,0-1.7,0.3-2.5,0.8c-0.2,0.2-0.5,0.4-0.8,0.6c-1.6,1.2-4.6,3.3-7.8,6.7c0.2-0.4,0.3-0.6,0.3-0.7
			c1-1.7,0.5-3.9-1.1-5.1c-0.7-0.6-1.6-0.8-2.4-0.8c-1,0-2,0.4-2.8,1.1c-1.4,1.4-2.7,2.9-3.9,4.5c5.7-13.6,15.5-13.6,19.2-13.6
			c8.7,0,15.1,3.1,19.3,9.5c0.7,1,1.8,1.7,3.1,1.8c0.1,0,0.2,0,0.3,0c1.2,0,2.3-0.5,3-1.4l14-16.2c1.4-1.6,1.3-4.1-0.3-5.6
			C466.7,4.3,454.3,0,438.9,0L438.9,0z"/>
	</g>
</g>
<g>
	<g>
		<polygon class="st3" points="231.2,468.5 282.8,456.6 262.7,441.4 		"/>
		<polygon class="st4" points="462.2,454.7 524.6,493.4 592.7,440.7 576.6,424.2 493.1,428.3 		"/>
		<polygon class="st5" points="524.6,493.4 543.1,436.4 571.6,419.9 610.2,416.7 621.5,421.5 		"/>
		<polygon class="st4" points="343.9,460.9 427.8,526.4 500.7,439.1 389.3,441.8 		"/>
		<polygon class="st3" points="503.1,435.4 429.4,440.9 427.8,526.4 		"/>
		<polygon class="st6" points="256.3,440.2 324.4,515.2 403.4,446.2 281.5,431.7 		"/>
		<polygon class="st5" points="324.4,515.2 342.4,446.2 293,435.4 274.1,430.3 260.6,438.4 259.3,442.3 		"/>
		<polygon class="st4" points="152.1,425.4 231.2,468.5 284.3,435.9 284.5,431.4 159.3,405.2 		"/>
		<polygon class="st4" points="668.5,474.9 567.6,435.7 615,429.5 		"/>
		<polygon class="st5" points="742,407.2 668.5,474.9 615,429.5 		"/>
		<polygon class="st7" points="120.5,337.8 198.1,267.8 222.5,362 		"/>
		<polygon class="st8" points="355.3,442.2 355.4,371.8 580.3,430 		"/>
		<polygon class="st9" points="689.4,350.5 555.9,224.2 355.4,371.8 		"/>
		<polygon class="st9" points="222.5,362 198.1,267.8 355.4,371.8 		"/>
		<polygon class="st7" points="219.2,419.9 355.4,371.8 355.3,442.2 		"/>
		<polygon class="st10" points="219.2,419.9 355.4,371.8 222.5,362 		"/>
		<polygon class="st10" points="580.3,430 689.4,350.5 355.4,371.8 		"/>
		<polygon class="st7" points="555.9,224.2 364.7,294.3 355.4,371.8 		"/>
		<polygon class="st11" points="364.7,294.3 355.4,371.8 198.1,267.8 		"/>
		<polygon class="st8" points="219.2,419.9 222.5,362 120.5,337.8 		"/>
		<polygon class="st9" points="120.5,337.8 5.3,360.9 143.2,356.3 		"/>
		<polygon class="st7" points="144.2,356.7 5.3,360.9 114,388.8 219.2,419.9 		"/>
		<polygon class="st11" points="555.9,224.2 686.5,328.3 689.4,350.5 		"/>
		<polygon class="st8" points="580.3,430 809.8,387 689.4,350.5 		"/>
		<polygon class="st9" points="686.5,328.3 689.4,350.5 809.8,387 		"/>
		<polygon class="st5" points="5.3,360.9 14.9,375.1 108.1,387.2 		"/>
		<polygon class="st4" points="14.9,375.1 219.2,419.9 107.6,387 		"/>
		<polygon class="st4" points="809.8,387 802.8,397.5 580.3,430 		"/>
		<polygon class="st3" points="90.4,391.8 356.6,452.8 355.3,442.2 		"/>
		<polygon class="st5" points="356.6,452.8 355.3,442.2 580.3,430 		"/>
		<polygon class="st3" points="356.6,452.9 578.5,436.1 580.3,430 		"/>
		<polygon class="st5" points="578.5,436.1 580.3,430 802.8,397.5 		"/>
		<polygon class="st5" points="62.1,385.4 139.9,451.4 161.4,407.7 		"/>
		<polygon class="st3" points="139.9,451.4 170.9,435.7 152.6,425.7 		"/>
	</g>
	<path class="st1" d="M615.8,334c0-10.5-8.5-18.9-18.9-18.9c-10.5,0-18.9,8.5-18.9,18.9c0,9.8,7.4,17.9,17,18.8V365c0,1.1,0.9,2,2,2
		c1.1,0,2-0.9,2-2v-12.2C608.4,351.9,615.8,343.8,615.8,334z"/>
	<path class="st1" d="M479.3,361.5c0-7-5.7-12.7-12.7-12.7c-7,0-12.7,5.7-12.7,12.7c0,6.6,5,11.9,11.4,12.6v8.1
		c0,0.7,0.6,1.3,1.3,1.3c0.7,0,1.3-0.6,1.3-1.3v-8.1C474.3,373.5,479.3,368.1,479.3,361.5z"/>
	<path class="st1" d="M263.8,302.6c0-6.1-5-11.1-11.1-11.1c-6.1,0-11.1,5-11.1,11.1c0,5.7,4.4,10.5,9.9,11v7.1
		c0,0.6,0.5,1.1,1.1,1.1c0.6,0,1.1-0.5,1.1-1.1v-7.1C259.5,313,263.8,308.3,263.8,302.6z"/>
	<path class="st1" d="M342.5,392.8c0-7-5.7-12.7-12.7-12.7c-7,0-12.7,5.7-12.7,12.7c0,6.6,5,11.9,11.4,12.6v8.1
		c0,0.7,0.6,1.3,1.3,1.3c0.7,0,1.3-0.6,1.3-1.3v-8.1C337.5,404.7,342.5,399.4,342.5,392.8z"/>
	<path class="st1" d="M512.1,311.6c0-5-4-9-9-9c-5,0-9,4-9,9c0,4.6,3.5,8.5,8.1,8.9v5.8c0,0.5,0.4,0.9,0.9,0.9
		c0.5,0,0.9-0.4,0.9-0.9v-5.8C508.6,320,512.1,316.2,512.1,311.6z"/>
</g>
<g>
	<path class="st0" d="M243.1,267.6l-24.6-3.9l0.8-5.2l10.3-7.5c3-2.3,5.1-3.9,6-4.8c1-0.9,1.7-1.8,2.2-2.6s0.8-1.7,1-2.7
		c0.2-1.4,0-2.5-0.7-3.3c-0.7-0.8-1.7-1.3-3-1.5c-1.4-0.2-2.7-0.1-4.1,0.3c-1.4,0.4-2.9,1.1-4.5,2l-3.3-5.4c2-1.2,3.6-2,4.8-2.4
		c1.2-0.4,2.6-0.7,4-0.8c1.4-0.1,2.9,0,4.6,0.2c2.2,0.4,4.1,1.1,5.6,2.1c1.6,1.1,2.7,2.4,3.4,4c0.7,1.6,0.9,3.3,0.6,5.2
		c-0.3,1.6-0.8,3.1-1.6,4.4c-0.8,1.3-1.9,2.6-3.4,4c-1.4,1.3-3.9,3.1-7.4,5.4l-5.2,3.5l-0.1,0.3l15.4,2.5L243.1,267.6z"/>
	<path class="st0" d="M264.5,234.4c3.4,0.5,6,1.7,7.8,3.6c1.8,1.9,2.5,4.1,2.1,6.7c-0.3,1.8-1,3.3-2.3,4.6c-1.2,1.2-3,2.2-5.4,3
		c2.4,1.8,4.1,3.6,5,5.3c0.9,1.7,1.2,3.5,0.9,5.3c-0.5,2.9-2,5-4.5,6.4c-2.5,1.4-5.7,1.8-9.4,1.2c-3.9-0.6-6.8-1.9-8.7-3.9
		c-1.9-2-2.7-4.5-2.2-7.5c0.3-2,1.1-3.7,2.5-5.1c1.3-1.4,3.3-2.5,5.8-3.3c-1.8-1.6-3-3.2-3.7-4.8s-0.8-3.2-0.6-5
		c0.4-2.5,1.8-4.4,4.1-5.6C258.3,234.3,261.1,233.9,264.5,234.4z M254.8,259.9c-0.2,1.4,0.1,2.5,0.9,3.5c0.8,0.9,2.1,1.5,3.8,1.8
		c1.8,0.3,3.3,0.1,4.3-0.5c1-0.6,1.7-1.6,1.9-2.9c0.2-1.1-0.1-2.2-0.9-3.2c-0.8-1.1-2.1-2.3-3.9-3.7
		C257.2,255.8,255.2,257.5,254.8,259.9z M263.6,239.9c-1.3-0.2-2.3,0-3.2,0.5c-0.9,0.5-1.4,1.3-1.6,2.4c-0.2,1,0,1.9,0.5,2.7
		c0.5,0.9,1.5,1.8,3,2.9c1.7-0.5,2.9-1.1,3.7-1.7c0.8-0.7,1.2-1.5,1.4-2.5c0.2-1.1-0.1-2-0.8-2.8
		C265.8,240.6,264.8,240.1,263.6,239.9z"/>
	<path class="st0" d="M275.9,262.4l1-6l12.9,2.1l-1,6L275.9,262.4z"/>
	<path class="st0" d="M318.3,251.6c-0.4,2.2-1.3,4-2.9,5.3c-1.6,1.3-3.6,2.1-6.1,2.3l0,0.1c2.8,0.8,4.8,2,6,3.6
		c1.2,1.6,1.7,3.6,1.3,5.9c-0.5,3.4-2.2,5.8-5,7.3c-2.8,1.5-6.4,1.9-11,1.1c-3.8-0.6-7.1-1.8-9.9-3.5l1-6.3c1.3,0.9,2.7,1.7,4.2,2.4
		s3.2,1.2,4.8,1.4c2.5,0.4,4.3,0.3,5.6-0.4c1.3-0.6,2.1-1.9,2.4-3.7c0.3-1.7-0.2-2.9-1.5-3.8c-1.2-0.9-3.3-1.6-6.3-2.1l-2.7-0.4
		l0.9-5.7l2.7,0.4c2.7,0.4,4.8,0.4,6.2-0.1c1.4-0.5,2.2-1.6,2.5-3.4c0.4-2.7-1-4.3-4.4-4.8c-1.2-0.2-2.4-0.2-3.6,0
		c-1.3,0.2-2.7,0.6-4.3,1.4l-2.6-5.7c3.6-1.8,7.6-2.3,12.1-1.6c3.6,0.6,6.4,1.8,8.3,3.6C318,246.8,318.8,249,318.3,251.6z"/>
	<path class="st0" d="M337.3,282.7l-7.4-1.2l3.3-20.4l0.6-3.3l0.7-3.6c-1.4,1-2.4,1.7-3,2l-4.6,2.6l-2.9-5.1l12.8-7.2l6.1,1
		L337.3,282.7z"/>
</g>
<g>
	<path class="st0" d="M594.9,244.5l-27.7-22.1l4.6-5.8l18-2.1c5.4-0.7,8.9-1.2,10.8-1.7c1.8-0.4,3.3-1,4.5-1.7
		c1.2-0.7,2.2-1.6,3.1-2.6c1.3-1.6,1.8-3.1,1.5-4.6c-0.3-1.5-1.1-2.8-2.6-4c-1.5-1.2-3.3-2.1-5.3-2.5c-2-0.4-4.3-0.6-6.9-0.6l-0.3-9
		c3.3-0.1,5.8,0,7.7,0.3s3.7,0.9,5.5,1.8c1.8,0.8,3.7,2,5.5,3.5c2.5,2,4.3,4.2,5.5,6.6c1.2,2.4,1.6,4.9,1.4,7.3
		c-0.2,2.5-1.2,4.7-2.9,6.8c-1.5,1.8-3.1,3.3-5.1,4.4c-1.9,1.1-4.2,1.9-6.9,2.5c-2.7,0.6-7,1.1-12.8,1.5l-8.9,0.7l-0.3,0.4
		l17.3,13.8L594.9,244.5z"/>
	<path class="st0" d="M642.2,249.7c-5.5,6.9-10.7,11.1-15.6,12.7c-4.9,1.5-9.7,0.4-14.5-3.4c-4.6-3.6-6.7-8.1-6.2-13.4
		c0.4-5.3,3.3-11.3,8.6-18c5.6-7,10.8-11.3,15.7-12.8c4.9-1.5,9.7-0.4,14.4,3.3c4.6,3.6,6.6,8.1,6.2,13.5
		C650.4,237,647.5,243,642.2,249.7z M622.8,234.3c-3.9,4.9-6.2,8.7-7.1,11.5c-0.8,2.8-0.3,5,1.7,6.5c2,1.6,4.2,1.6,6.8,0.2
		c2.6-1.4,5.8-4.6,9.6-9.4c3.9-4.9,6.2-8.7,7-11.5c0.8-2.8,0.3-5-1.7-6.5c-2-1.6-4.2-1.6-6.8-0.2
		C629.9,226.3,626.7,229.4,622.8,234.3z"/>
	<path class="st0" d="M651.3,289.4l-8.4-6.7l18.3-22.9l3.1-3.7l3.4-4c-2.5,0.3-4.2,0.4-5.1,0.4l-7.5,0l0-8.3l20.9,0l6.9,5.5
		L651.3,289.4z"/>
	<path class="st0" d="M675.5,281.1c6.2-7.8,12.6-12.4,18.9-13.6c6.4-1.2,12.9,0.8,19.5,6.1c2.3,1.8,3.9,3.3,5,4.6l-5.3,6.7
		c-1.3-1.6-2.8-3.1-4.3-4.3c-2.9-2.3-5.6-3.7-8.1-4.3c-2.5-0.6-4.9-0.4-7.1,0.6c-2.3,1-4.7,3-7.4,6l0.4,0.3
		c4.2-1.6,8.3-0.9,12.3,2.2c3.5,2.8,5.4,6.1,5.7,10c0.2,3.8-1.2,7.7-4.3,11.6c-3.4,4.2-7.2,6.6-11.6,7.2c-4.4,0.6-8.6-0.8-12.9-4.2
		c-2.9-2.3-4.9-5-6-8.1c-1.1-3.1-1.2-6.4-0.3-10C670.6,288.4,672.5,284.8,675.5,281.1z M681.3,303.2c1.8,1.4,3.6,1.9,5.6,1.5
		c1.9-0.4,3.8-1.8,5.5-4c1.5-1.9,2.3-3.8,2.3-5.6c0-1.8-0.9-3.5-2.7-4.9c-1.7-1.4-3.6-2-5.7-1.8s-3.7,0.9-4.9,2.4
		c-1.7,2.2-2.6,4.4-2.6,6.8C678.7,299.9,679.5,301.8,681.3,303.2z"/>
</g>
<g>
</g>
<g>
</g>
<g>
</g>
<g>
</g>
<g>
</g>
<g>
</g>
</svg>
